<mxfile host="Electron" modified="2024-07-17T00:01:02.174Z" agent="Mozilla/5.0 (Windows NT 10.0; Win64; x64) AppleWebKit/537.36 (KHTML, like Gecko) draw.io/24.6.4 Chrome/124.0.6367.207 Electron/30.0.6 Safari/537.36" etag="2ebalrw18eMBsiUgp-pF" version="24.6.4" type="device">
  <diagram name="PÃ¡gina-1" id="jQoiph2c1nl-3ZJ2nl2n">
    <mxGraphModel dx="880" dy="532" grid="1" gridSize="10" guides="1" tooltips="1" connect="1" arrows="1" fold="1" page="1" pageScale="1" pageWidth="827" pageHeight="1169" math="0" shadow="0">
      <root>
        <mxCell id="0" />
        <mxCell id="1" parent="0" />
        <mxCell id="_NtyxQ0_7e0Htwn68GD2-7" value="" style="rounded=0;whiteSpace=wrap;html=1;fillColor=#eeeeee;strokeColor=#36393D;strokeWidth=2;" parent="1" vertex="1">
          <mxGeometry x="40" y="160" width="100" height="80" as="geometry" />
        </mxCell>
        <mxCell id="_NtyxQ0_7e0Htwn68GD2-2" value="&lt;font style=&quot;font-size: 14px;&quot; face=&quot;Courier New&quot;&gt;&lt;b&gt;head&lt;/b&gt;&lt;/font&gt;" style="rounded=0;whiteSpace=wrap;html=1;fillColor=#fad9d5;strokeColor=#ae4132;" parent="1" vertex="1">
          <mxGeometry x="64" y="180" width="50" height="40" as="geometry" />
        </mxCell>
        <mxCell id="_NtyxQ0_7e0Htwn68GD2-6" value="" style="endArrow=classic;html=1;rounded=0;exitX=1;exitY=0.5;exitDx=0;exitDy=0;strokeColor=#AE4132;entryX=0;entryY=0.5;entryDx=0;entryDy=0;" parent="1" source="_NtyxQ0_7e0Htwn68GD2-2" target="3QNwfG33OlBaRYiH3SOb-1" edge="1">
          <mxGeometry width="50" height="50" relative="1" as="geometry">
            <mxPoint x="260" y="320" as="sourcePoint" />
            <mxPoint x="210" y="200" as="targetPoint" />
          </mxGeometry>
        </mxCell>
        <mxCell id="3QNwfG33OlBaRYiH3SOb-1" value="&lt;font face=&quot;Courier New&quot;&gt;&lt;span style=&quot;font-size: 14px;&quot;&gt;&lt;b&gt;45&lt;/b&gt;&lt;/span&gt;&lt;/font&gt;" style="rounded=0;whiteSpace=wrap;html=1;fillColor=#d5e8d4;strokeColor=#000000;" parent="1" vertex="1">
          <mxGeometry x="170" y="180" width="40" height="40" as="geometry" />
        </mxCell>
        <mxCell id="3QNwfG33OlBaRYiH3SOb-2" value="" style="rounded=0;whiteSpace=wrap;html=1;fillColor=#fff2cc;strokeColor=#000000;" parent="1" vertex="1">
          <mxGeometry x="210" y="180" width="30" height="40" as="geometry" />
        </mxCell>
        <mxCell id="3QNwfG33OlBaRYiH3SOb-5" value="" style="endArrow=classic;html=1;rounded=0;" parent="1" edge="1">
          <mxGeometry width="50" height="50" relative="1" as="geometry">
            <mxPoint x="225" y="200" as="sourcePoint" />
            <mxPoint x="280" y="200" as="targetPoint" />
          </mxGeometry>
        </mxCell>
        <mxCell id="3QNwfG33OlBaRYiH3SOb-8" value="&lt;font face=&quot;Courier New&quot;&gt;&lt;span style=&quot;font-size: 14px;&quot;&gt;&lt;b&gt;65&lt;/b&gt;&lt;/span&gt;&lt;/font&gt;" style="rounded=0;whiteSpace=wrap;html=1;fillColor=#d5e8d4;strokeColor=#000000;" parent="1" vertex="1">
          <mxGeometry x="280" y="180" width="40" height="40" as="geometry" />
        </mxCell>
        <mxCell id="3QNwfG33OlBaRYiH3SOb-9" value="" style="rounded=0;whiteSpace=wrap;html=1;fillColor=#fff2cc;strokeColor=#000000;" parent="1" vertex="1">
          <mxGeometry x="320" y="180" width="30" height="40" as="geometry" />
        </mxCell>
        <mxCell id="3QNwfG33OlBaRYiH3SOb-10" value="" style="endArrow=classic;html=1;rounded=0;" parent="1" edge="1">
          <mxGeometry width="50" height="50" relative="1" as="geometry">
            <mxPoint x="335" y="200" as="sourcePoint" />
            <mxPoint x="390" y="200" as="targetPoint" />
          </mxGeometry>
        </mxCell>
        <mxCell id="3QNwfG33OlBaRYiH3SOb-11" value="&lt;font face=&quot;Courier New&quot;&gt;&lt;span style=&quot;font-size: 14px;&quot;&gt;&lt;b&gt;34&lt;/b&gt;&lt;/span&gt;&lt;/font&gt;" style="rounded=0;whiteSpace=wrap;html=1;fillColor=#d5e8d4;strokeColor=#000000;" parent="1" vertex="1">
          <mxGeometry x="390" y="180" width="40" height="40" as="geometry" />
        </mxCell>
        <mxCell id="3QNwfG33OlBaRYiH3SOb-12" value="" style="rounded=0;whiteSpace=wrap;html=1;fillColor=#fff2cc;strokeColor=#000000;" parent="1" vertex="1">
          <mxGeometry x="430" y="180" width="30" height="40" as="geometry" />
        </mxCell>
        <mxCell id="3QNwfG33OlBaRYiH3SOb-13" value="" style="endArrow=classic;html=1;rounded=0;" parent="1" edge="1">
          <mxGeometry width="50" height="50" relative="1" as="geometry">
            <mxPoint x="445" y="200" as="sourcePoint" />
            <mxPoint x="500" y="200" as="targetPoint" />
          </mxGeometry>
        </mxCell>
        <mxCell id="3QNwfG33OlBaRYiH3SOb-14" value="&lt;font face=&quot;Courier New&quot;&gt;&lt;span style=&quot;font-size: 14px;&quot;&gt;&lt;b&gt;36&lt;/b&gt;&lt;/span&gt;&lt;/font&gt;" style="rounded=0;whiteSpace=wrap;html=1;fillColor=#d5e8d4;strokeColor=#000000;" parent="1" vertex="1">
          <mxGeometry x="500" y="180" width="40" height="40" as="geometry" />
        </mxCell>
        <mxCell id="3QNwfG33OlBaRYiH3SOb-15" value="" style="rounded=0;whiteSpace=wrap;html=1;fillColor=#fff2cc;strokeColor=#000000;" parent="1" vertex="1">
          <mxGeometry x="540" y="180" width="30" height="40" as="geometry" />
        </mxCell>
        <mxCell id="3QNwfG33OlBaRYiH3SOb-17" value="" style="endArrow=none;html=1;rounded=0;exitX=1;exitY=1;exitDx=0;exitDy=0;entryX=0;entryY=0;entryDx=0;entryDy=0;exitPerimeter=0;" parent="1" source="3QNwfG33OlBaRYiH3SOb-15" target="3QNwfG33OlBaRYiH3SOb-15" edge="1">
          <mxGeometry width="50" height="50" relative="1" as="geometry">
            <mxPoint x="590" y="210" as="sourcePoint" />
            <mxPoint x="640" y="160" as="targetPoint" />
          </mxGeometry>
        </mxCell>
      </root>
    </mxGraphModel>
  </diagram>
</mxfile>
